<?xml version="1.0" standalone="no"?>
<!DOCTYPE svg PUBLIC "-//W3C//DTD SVG 20010904//EN"
 "http://www.w3.org/TR/2001/REC-SVG-20010904/DTD/svg10.dtd">
<svg version="1.0" xmlns="http://www.w3.org/2000/svg"
 width="2507.000000pt" height="2507.000000pt" viewBox="0 0 2507.000000 2507.000000"
 preserveAspectRatio="xMidYMid meet">
<metadata>
Created by potrace 1.11, written by Peter Selinger 2001-2013
</metadata>
<g transform="translate(0.000000,2507.000000) scale(0.100000,-0.100000)"
fill="#000000" stroke="none">
<path d="M2 18957 l3 -6102 6080 0 6080 0 3 6095 c1 4104 -1 6096 -8 6100 -6
4 -2744 7 -6085 8 l-6075 1 2 -6102z m6338 4529 c52 -4 109 -9 125 -10 54 -7
129 -17 170 -23 22 -3 51 -7 65 -8 41 -4 114 -16 120 -20 3 -2 26 -6 50 -10
25 -3 65 -11 90 -17 25 -5 56 -12 70 -14 21 -4 134 -34 245 -64 71 -19 197
-61 290 -95 55 -20 105 -38 110 -39 6 -1 15 -5 21 -8 5 -4 34 -16 64 -28 137
-54 492 -228 552 -272 16 -11 28 -16 28 -11 0 4 4 3 8 -3 4 -6 30 -24 57 -39
70 -41 337 -217 355 -235 3 -3 32 -25 65 -49 33 -25 98 -77 144 -115 46 -39
100 -84 120 -100 52 -43 378 -372 431 -436 58 -69 168 -206 200 -250 14 -18
30 -38 35 -45 6 -6 15 -18 20 -27 6 -9 44 -68 86 -130 41 -62 84 -129 95 -148
10 -19 22 -36 27 -38 4 -2 7 -10 7 -18 0 -8 4 -14 8 -14 4 0 13 -12 19 -27 7
-16 23 -46 37 -68 35 -57 147 -283 195 -395 23 -52 46 -104 51 -115 10 -21 31
-72 36 -90 2 -5 28 -80 57 -165 30 -85 56 -166 60 -180 3 -14 13 -52 22 -85 9
-33 18 -67 20 -75 2 -8 8 -35 14 -60 7 -25 14 -60 17 -79 2 -19 7 -37 9 -41 3
-4 7 -29 10 -56 4 -26 8 -50 10 -54 2 -3 6 -26 10 -50 3 -25 8 -57 11 -71 6
-38 16 -121 29 -249 22 -213 23 -731 1 -870 -3 -14 -7 -52 -10 -85 -7 -64 -9
-81 -21 -160 -13 -95 -13 -94 -38 -220 -6 -31 -18 -94 -19 -102 0 -5 -4 -18
-9 -31 -5 -12 -11 -33 -13 -45 -2 -12 -9 -42 -16 -67 -7 -25 -14 -52 -15 -60
-2 -8 -16 -53 -30 -100 -15 -47 -28 -89 -29 -95 -2 -5 -6 -17 -9 -25 -15 -40
-42 -116 -43 -120 0 -3 -6 -18 -12 -33 -7 -16 -12 -31 -12 -34 0 -3 -6 -19
-14 -36 -8 -18 -27 -61 -41 -97 -40 -98 -170 -360 -227 -458 -28 -48 -56 -96
-62 -107 -6 -11 -53 -83 -105 -160 -79 -118 -120 -174 -203 -281 -8 -11 114
-135 669 -682 l203 -200 -506 -506 c-279 -278 -509 -506 -513 -506 -3 0 -208
204 -454 454 l-448 454 -104 -69 c-58 -38 -109 -69 -115 -69 -5 0 -10 -4 -10
-10 0 -5 -4 -10 -10 -10 -9 0 -174 -91 -195 -107 -19 -15 -375 -183 -388 -183
-7 0 -17 -4 -22 -9 -8 -7 -194 -82 -215 -87 -3 0 -12 -4 -20 -7 -15 -6 -197
-67 -215 -72 -13 -3 -16 -4 -72 -22 -75 -23 -186 -52 -265 -69 -40 -8 -82 -17
-93 -20 -18 -4 -32 -6 -90 -18 -33 -6 -119 -19 -135 -21 -8 -1 -37 -4 -65 -8
-47 -7 -106 -14 -185 -22 -311 -31 -773 -23 -1085 20 -11 1 -44 6 -74 10 -30
3 -63 9 -75 11 -12 2 -34 7 -51 9 -96 17 -188 35 -193 39 -4 2 -23 7 -42 10
-19 3 -62 13 -95 22 -33 8 -67 17 -75 19 -33 7 -256 76 -275 85 -11 5 -60 23
-110 41 -187 67 -547 235 -700 328 -37 23 -69 41 -72 41 -2 0 -24 14 -48 30
-24 17 -46 30 -49 30 -8 0 -293 195 -306 210 -3 3 -21 17 -40 30 -32 22 -128
97 -140 110 -3 3 -32 28 -65 55 -145 121 -399 376 -512 512 -55 67 -89 107
-98 117 -6 6 -35 45 -65 86 -30 41 -57 77 -61 80 -25 20 -256 388 -320 510
-18 36 -36 67 -39 70 -5 5 -53 101 -55 110 0 3 -17 39 -37 80 -52 109 -63 134
-106 245 -88 223 -172 501 -208 685 -38 195 -44 233 -40 237 3 3 1 15 -4 28
-5 12 -12 53 -15 91 -4 38 -9 83 -11 99 -3 17 -7 66 -10 110 -2 44 -7 107 -9
140 -13 162 -2 560 20 740 3 22 7 60 10 85 4 47 12 107 20 150 3 14 8 42 11
64 6 44 8 54 23 117 6 25 12 62 15 82 2 19 9 44 15 56 7 12 10 21 7 21 -6 0
61 247 81 300 3 8 7 20 9 25 6 27 68 195 85 232 10 23 19 46 19 51 0 5 6 22
14 38 25 51 60 129 61 134 2 14 116 239 171 339 35 62 64 117 64 122 0 5 4 9
8 9 5 0 16 16 25 36 10 19 22 40 27 47 6 7 44 64 86 127 68 102 101 149 141
200 64 81 109 136 115 138 4 2 8 10 8 18 0 8 3 14 8 14 4 0 30 28 57 61 49 61
338 356 405 414 177 153 350 289 485 378 39 26 75 51 82 57 7 5 17 10 23 10 5
0 10 4 10 8 0 5 10 14 23 20 12 6 45 25 72 42 28 17 61 36 75 42 14 7 32 17
40 24 8 6 42 26 74 43 33 17 64 35 70 40 6 5 14 10 18 11 11 2 71 29 88 40 8
5 47 24 85 41 39 17 93 41 120 54 46 20 82 36 95 40 3 1 19 7 35 14 44 19 237
92 255 96 8 2 60 18 115 35 85 26 222 63 275 75 8 2 44 10 80 19 36 8 81 18
100 21 19 3 58 10 85 15 44 8 108 18 170 26 22 3 97 11 165 18 25 3 86 8 135
12 50 3 91 7 92 8 6 5 537 -2 623 -8z"/>
<path d="M5817 21894 c-1 -1 -44 -5 -94 -8 -51 -4 -99 -8 -105 -11 -7 -2 -35
-6 -63 -9 -27 -3 -59 -7 -70 -10 -27 -5 -104 -18 -110 -18 -2 0 -37 -9 -77
-19 -40 -11 -81 -22 -91 -24 -10 -2 -27 -7 -37 -10 -10 -3 -27 -7 -37 -9 -10
-2 -42 -13 -70 -25 -29 -11 -53 -18 -53 -16 0 3 -19 -4 -42 -16 -24 -12 -43
-21 -43 -19 0 2 -22 -7 -49 -18 -27 -12 -51 -22 -55 -22 -4 0 -73 -34 -154
-75 -145 -73 -369 -208 -375 -226 -2 -5 -9 -9 -16 -9 -7 0 -21 -9 -31 -20 -10
-11 -22 -20 -27 -20 -4 0 -16 -8 -26 -17 -10 -10 -33 -29 -52 -43 -32 -23 -61
-48 -149 -125 -128 -113 -324 -330 -411 -455 -13 -19 -30 -41 -37 -48 -7 -7
-13 -17 -13 -22 0 -5 -6 -15 -13 -22 -17 -19 -57 -76 -57 -82 0 -3 -15 -29
-34 -58 -47 -74 -145 -266 -190 -373 -35 -83 -103 -270 -111 -305 -2 -8 -13
-51 -25 -95 -108 -400 -123 -900 -40 -1305 6 -25 12 -56 14 -70 4 -21 14 -59
40 -160 2 -8 19 -60 37 -115 18 -55 33 -102 34 -105 1 -3 9 -22 18 -44 9 -21
17 -40 17 -43 0 -18 166 -352 186 -374 8 -8 14 -19 14 -22 0 -15 159 -249 173
-255 4 -2 7 -10 7 -17 0 -7 3 -15 8 -17 4 -1 41 -43 82 -93 73 -87 224 -244
305 -315 89 -79 192 -160 203 -160 7 0 12 -4 12 -8 0 -15 335 -232 357 -232 3
0 14 -6 22 -13 15 -12 123 -64 276 -132 54 -25 307 -112 345 -120 8 -2 35 -8
60 -15 25 -7 56 -14 70 -16 14 -3 58 -11 98 -20 82 -16 148 -25 317 -39 93 -9
319 -9 425 -1 156 12 168 13 385 50 11 2 40 9 65 16 25 7 56 14 70 16 14 3 34
8 45 11 11 4 22 8 25 8 3 1 12 4 20 7 8 3 60 20 115 38 153 50 488 195 505
219 3 4 20 13 38 20 17 8 32 18 32 23 0 6 -49 58 -109 117 -60 58 -220 214
-356 346 -135 132 -268 261 -296 286 -27 26 -49 50 -49 54 0 4 228 235 506
513 l506 507 231 -239 c591 -607 587 -603 593 -578 4 12 10 22 14 22 4 0 15
17 26 38 10 20 21 39 24 42 9 9 130 237 130 245 0 3 9 24 19 48 57 121 138
365 167 502 10 43 43 232 48 275 20 148 26 451 13 615 -6 76 -35 279 -43 307
-3 10 -7 28 -10 40 -10 54 -14 72 -44 179 -79 286 -224 596 -397 854 -134 198
-180 256 -344 431 -112 120 -397 364 -424 364 -3 0 -18 11 -33 25 -15 14 -30
25 -34 25 -3 0 -33 18 -66 39 -154 103 -510 272 -642 306 -3 1 -12 4 -20 8
-89 34 -304 86 -445 107 -44 6 -91 13 -105 15 -78 13 -513 28 -523 19z"/>
<path d="M22320 25049 c0 -5 11 -36 24 -69 14 -33 23 -60 20 -60 -3 0 1 -10 8
-22 7 -13 13 -25 13 -28 1 -3 20 -63 44 -135 24 -71 44 -134 45 -140 1 -5 5
-16 9 -22 5 -7 6 -13 3 -13 -3 0 2 -19 10 -42 14 -40 85 -318 98 -383 9 -44
15 -75 26 -125 6 -25 12 -61 15 -80 5 -38 12 -80 20 -120 3 -13 7 -42 10 -65
3 -22 10 -71 15 -110 13 -93 27 -227 36 -340 4 -38 7 -232 7 -430 1 -320 -4
-458 -18 -575 -2 -19 -6 -57 -9 -85 -6 -53 -16 -137 -21 -170 -1 -11 -6 -47
-10 -80 -4 -33 -9 -63 -11 -66 -1 -3 -6 -28 -9 -55 -4 -27 -11 -69 -17 -94 -5
-25 -12 -56 -14 -70 -2 -14 -11 -56 -20 -95 -9 -38 -18 -80 -20 -93 -9 -47
-66 -260 -90 -339 -14 -46 -27 -89 -28 -95 -2 -7 -6 -20 -9 -28 -3 -8 -16 -44
-27 -80 -35 -110 -72 -208 -104 -282 -9 -20 -16 -41 -16 -48 0 -7 -7 -24 -14
-38 -8 -15 -21 -43 -29 -62 -8 -19 -26 -60 -39 -90 -14 -30 -38 -84 -54 -120
-16 -36 -32 -66 -36 -68 -4 -2 -8 -10 -8 -18 0 -7 -9 -29 -19 -47 -11 -19 -42
-79 -71 -133 -28 -55 -78 -144 -111 -199 -32 -55 -65 -111 -71 -125 -7 -14
-21 -34 -30 -44 -10 -11 -18 -26 -18 -33 0 -7 -3 -13 -8 -13 -4 0 -16 -17 -27
-37 -11 -21 -24 -42 -28 -48 -12 -14 -180 -254 -192 -274 -5 -9 -12 -18 -15
-21 -3 -3 -28 -34 -55 -70 -28 -36 -54 -70 -60 -76 -5 -6 -19 -23 -30 -38 -11
-15 -29 -38 -40 -50 -11 -12 -40 -46 -65 -76 -147 -175 -353 -389 -534 -554
-49 -44 -97 -88 -105 -96 -9 -8 -39 -33 -66 -55 -28 -22 -53 -44 -57 -50 -9
-12 -25 30 -54 140 -2 6 -12 39 -23 75 -69 226 -94 311 -106 355 -8 28 -39
131 -70 230 -31 99 -57 187 -59 195 -2 8 -32 107 -66 220 -54 180 -80 267 -95
320 -2 8 -22 74 -44 145 -74 242 -103 340 -105 350 -2 6 -13 44 -26 85 -13 41
-25 80 -26 85 -8 28 -37 124 -74 245 -22 74 -42 142 -45 150 -3 14 -57 193
-91 305 -8 28 -18 57 -21 65 -3 8 -7 22 -8 30 -2 8 -22 76 -45 150 -23 74 -43
140 -44 145 -1 6 -10 37 -20 70 -10 33 -19 65 -21 70 -1 6 -5 17 -8 25 -3 8
-24 78 -47 155 -47 156 -64 191 -120 235 -57 45 -107 63 -175 63 -115 -1 -197
-61 -263 -192 -38 -76 -53 -101 -101 -176 -35 -53 -60 -82 -87 -100 -22 -14
-26 -12 -78 40 -29 30 -76 83 -103 117 l-49 63 23 80 c46 157 53 180 57 207 3
15 7 31 9 35 3 5 8 24 11 43 3 19 8 46 11 60 3 14 8 43 11 64 3 22 7 43 9 46
9 14 19 175 19 290 -1 137 -21 259 -56 337 -12 27 -22 50 -23 53 -31 92 -152
214 -269 269 -104 50 -167 64 -291 65 -112 0 -175 -7 -255 -29 -30 -9 -63 -18
-72 -20 -36 -8 -154 -76 -204 -117 -111 -93 -181 -244 -185 -403 -2 -58 11
-167 22 -187 5 -10 8 -18 5 -18 -6 0 35 -120 60 -175 10 -22 18 -42 19 -45 0
-3 11 -24 23 -48 87 -166 202 -337 334 -497 79 -96 98 -121 98 -129 0 -14
-101 -135 -161 -193 -55 -53 -197 -163 -210 -163 -4 0 -14 -6 -21 -13 -17 -17
-151 -81 -212 -101 -59 -20 -65 -17 -112 73 -19 36 -46 86 -61 111 -29 51
-191 289 -207 306 -6 6 -22 26 -36 44 -62 83 -169 190 -258 257 -69 53 -199
117 -267 132 -189 43 -367 -9 -512 -150 -53 -52 -159 -199 -154 -214 2 -4 -2
-11 -7 -14 -5 -3 -21 -33 -35 -66 -81 -193 -83 -375 -6 -535 30 -61 112 -169
151 -198 9 -7 23 -18 30 -25 25 -23 123 -83 182 -111 63 -29 241 -91 291 -101
17 -3 35 -7 40 -9 21 -5 121 -25 155 -31 145 -22 238 -33 340 -40 25 -2 48 -4
51 -4 6 -1 25 -39 27 -54 1 -4 8 -20 17 -37 8 -16 17 -44 20 -63 5 -30 2 -38
-22 -55 -26 -18 -103 -47 -149 -56 -10 -3 -39 -9 -64 -15 -25 -5 -71 -12 -102
-15 -32 -3 -84 -9 -115 -12 -81 -8 -154 -44 -200 -99 -21 -25 -38 -49 -39 -53
0 -4 -6 -27 -13 -52 -18 -62 -8 -139 25 -200 20 -38 54 -72 124 -128 52 -42
100 -81 106 -87 6 -5 26 -21 44 -35 19 -14 50 -38 69 -55 20 -16 40 -33 46
-38 5 -4 20 -15 31 -25 12 -9 36 -28 54 -42 18 -14 42 -33 54 -44 11 -10 37
-30 56 -45 19 -14 37 -28 40 -32 3 -3 97 -79 210 -169 113 -90 207 -168 208
-172 2 -4 8 -6 13 -2 5 3 9 1 9 -4 0 -4 35 -36 78 -70 44 -34 90 -71 103 -82
13 -11 29 -23 34 -28 17 -13 219 -176 235 -189 8 -7 44 -35 80 -64 36 -28 74
-58 85 -68 11 -9 101 -81 200 -161 99 -79 185 -149 192 -155 7 -5 18 -14 25
-20 37 -28 114 -90 118 -95 3 -3 25 -21 50 -40 25 -19 47 -38 48 -42 2 -4 8
-8 13 -8 5 0 17 -8 27 -17 20 -19 79 -68 127 -105 17 -12 39 -31 50 -41 11
-10 45 -37 75 -60 30 -23 60 -46 66 -52 21 -18 88 -73 204 -165 63 -50 124
-98 135 -108 11 -9 45 -36 75 -61 30 -24 59 -48 64 -52 18 -16 -590 -287 -704
-314 -8 -2 -38 -13 -67 -23 -28 -11 -54 -17 -57 -14 -3 3 -6 0 -6 -6 0 -7 -7
-12 -16 -12 -8 0 -63 -16 -122 -35 -104 -33 -417 -118 -477 -128 -16 -3 -93
-19 -170 -36 -77 -16 -158 -32 -180 -35 -22 -3 -51 -7 -65 -10 -14 -2 -47 -7
-75 -11 -27 -3 -57 -8 -65 -10 -8 -2 -40 -6 -70 -10 -30 -3 -68 -7 -85 -9 -16
-2 -68 -7 -115 -11 -47 -4 -98 -9 -115 -11 -93 -9 -325 -17 -500 -17 -267 0
-476 9 -645 29 -25 3 -61 7 -80 9 -53 4 -152 16 -180 21 -14 2 -45 7 -70 9
-25 3 -52 8 -60 10 -8 2 -37 7 -64 10 -28 4 -53 8 -56 10 -4 2 -29 7 -56 11
-27 3 -52 8 -55 10 -4 2 -24 6 -45 10 -22 3 -129 28 -239 55 -239 60 -216 54
-240 61 -11 4 -67 21 -125 38 -58 17 -112 34 -120 37 -8 3 -19 7 -25 8 -31 8
-302 109 -309 116 -6 5 -16 9 -23 9 -7 0 -37 11 -67 25 -30 14 -57 25 -60 25
-3 0 -31 12 -63 26 -32 15 -74 33 -93 41 -53 23 -414 204 -425 213 -6 5 -35
22 -65 38 -68 36 -251 145 -305 182 -22 14 -46 30 -52 34 -10 6 -13 -485 -13
-2441 l0 -2448 4663 1 c2564 1 4667 2 4674 3 6 0 21 21 33 46 12 25 26 47 31
51 5 3 7 9 4 14 -3 4 2 13 10 20 8 7 15 16 15 20 0 4 33 76 74 161 76 160 127
277 178 414 138 370 176 692 87 757 -14 10 -54 23 -90 28 -35 4 -82 11 -104
14 -364 48 -636 166 -780 337 -32 39 -66 91 -76 117 -9 22 -11 23 -27 10 -9
-9 -21 -17 -27 -19 -5 -2 -57 -35 -115 -73 -58 -38 -154 -102 -215 -141 -60
-40 -182 -119 -270 -177 -88 -57 -171 -111 -185 -118 -14 -7 -29 -19 -33 -26
-4 -8 -12 -14 -17 -14 -8 0 -69 -37 -95 -58 -47 -37 -171 -104 -214 -115 -96
-24 -221 -4 -286 46 -89 68 -196 227 -212 314 -19 108 5 214 68 293 40 51 41
51 614 425 121 79 225 148 232 154 7 6 14 11 17 11 5 0 137 85 153 99 7 6 15
11 18 11 4 0 21 11 39 25 18 14 36 25 40 25 4 0 12 5 19 11 13 11 359 239 363
239 2 0 32 20 68 45 37 25 69 45 72 45 2 0 10 5 17 11 12 11 389 257 487 319
30 19 57 37 60 41 3 3 16 12 29 19 14 7 30 17 35 22 6 5 40 27 76 50 36 23
123 80 194 126 173 113 204 125 306 124 54 0 112 -13 159 -36 27 -12 131 -107
131 -119 0 -4 5 -13 10 -20 124 -148 142 -337 45 -477 -31 -45 -80 -83 -234
-182 -58 -38 -113 -73 -121 -78 -40 -28 -553 -363 -717 -469 -62 -40 -113 -75
-113 -77 0 -2 20 -9 45 -15 24 -6 57 -22 72 -36 45 -39 160 -92 238 -109 11
-2 30 -6 43 -9 12 -3 34 -7 50 -10 15 -3 34 -8 42 -10 8 -2 38 -7 65 -10 28
-3 66 -8 85 -11 19 -3 52 -7 72 -9 47 -4 161 -42 208 -68 158 -88 259 -219
305 -394 22 -81 28 -142 27 -258 0 -150 -9 -213 -58 -413 -55 -225 -177 -553
-300 -802 -31 -63 -38 -86 -28 -90 7 -3 510 -5 1116 -5 l1103 1 3 6101 2 6101
-1375 0 c-829 0 -1375 -4 -1375 -9z m-4328 -2215 c42 -9 59 -78 54 -223 -4
-118 -22 -247 -36 -256 -8 -5 -100 128 -100 144 0 5 -3 11 -8 13 -8 3 -87 161
-96 195 -4 12 -8 30 -10 40 -2 10 -5 23 -6 28 -8 35 2 44 53 52 70 12 116 14
149 7z m-1806 -1230 c69 -45 240 -241 286 -327 10 -19 8 -20 -33 -14 -24 4
-53 9 -64 12 -108 27 -138 36 -187 55 -79 30 -152 80 -156 107 -6 41 75 193
103 193 7 0 30 -12 51 -26z m2148 -441 c22 -14 43 -29 46 -33 5 -7 69 -33 140
-57 68 -23 192 -24 273 -1 68 18 172 69 192 92 6 7 17 15 26 18 13 5 21 -7 37
-60 46 -150 103 -339 113 -377 6 -22 14 -47 17 -55 3 -8 6 -18 7 -22 2 -5 3
-9 5 -10 1 -3 3 -9 14 -53 2 -11 25 -85 49 -165 25 -80 50 -161 55 -180 9 -30
91 -305 153 -510 11 -36 22 -74 25 -85 7 -28 10 -38 17 -55 8 -21 48 -152 52
-170 2 -8 13 -46 25 -85 12 -38 22 -74 24 -80 1 -5 7 -26 13 -45 22 -68 75
-243 77 -254 4 -17 27 -97 42 -141 7 -22 27 -86 43 -142 49 -163 91 -302 117
-387 13 -44 24 -82 24 -86 0 -4 -37 -33 -82 -66 -46 -32 -85 -61 -88 -64 -3
-3 -23 -17 -45 -32 -22 -14 -72 -48 -111 -76 l-70 -49 -130 104 c-71 57 -142
114 -157 126 -16 12 -34 27 -40 32 -7 6 -59 48 -117 95 -58 46 -107 86 -110
89 -3 3 -34 28 -70 56 -36 27 -70 54 -76 60 -6 5 -25 21 -43 35 -18 14 -42 33
-54 44 -12 10 -38 30 -57 45 -19 14 -37 28 -40 31 -3 4 -131 107 -285 230
-154 123 -282 226 -285 229 -3 4 -21 18 -42 33 -20 15 -42 33 -50 40 -7 7 -42
36 -77 63 -35 28 -82 66 -106 85 -58 48 -73 60 -125 100 -25 19 -47 37 -50 40
-4 5 -81 67 -118 95 -7 6 -18 15 -25 20 -7 6 -57 47 -112 90 -55 44 -102 82
-105 85 -3 3 -52 43 -110 89 -58 46 -108 87 -113 91 -4 3 5 13 20 21 98 50
253 182 253 216 0 7 3 13 8 13 9 0 49 87 68 149 26 90 22 227 -11 353 -6 23
-3 29 16 37 327 133 549 287 754 523 l40 46 59 -55 c32 -30 77 -66 100 -80z
m3866 -2413 c25 -12 60 -35 79 -49 36 -27 207 -278 217 -318 4 -13 9 -23 13
-23 7 0 8 -5 14 -93 7 -99 -24 -192 -87 -259 -35 -37 -148 -118 -165 -118 -5
0 -11 -3 -13 -7 -3 -7 -138 -101 -163 -113 -26 -13 -131 -84 -136 -92 -3 -5
-13 -10 -21 -11 -8 -2 -21 -8 -29 -15 -8 -8 -52 -38 -99 -67 -47 -30 -92 -59
-100 -65 -38 -26 -332 -219 -343 -224 -14 -7 -47 -28 -61 -39 -6 -5 -81 -54
-166 -110 -86 -56 -207 -136 -270 -177 -63 -41 -127 -81 -142 -89 -16 -7 -28
-17 -28 -21 0 -4 -13 -13 -30 -20 -16 -7 -30 -16 -30 -21 0 -5 -5 -9 -11 -9
-6 0 -33 -16 -59 -35 -26 -19 -53 -35 -59 -35 -6 0 -11 -4 -11 -9 0 -5 -13
-14 -30 -21 -16 -7 -30 -16 -30 -21 0 -5 -4 -9 -9 -9 -7 0 -161 -98 -251 -160
-8 -5 -71 -47 -140 -91 -69 -45 -190 -124 -270 -176 -130 -85 -272 -177 -615
-401 -60 -39 -117 -76 -125 -82 -171 -117 -267 -146 -380 -113 -25 7 -47 13
-50 14 -3 1 -21 9 -41 19 -54 28 -97 77 -179 201 -41 63 -79 117 -83 120 -5 3
-8 9 -8 13 1 3 -6 32 -15 63 -18 62 -14 194 7 219 6 8 8 14 3 14 -5 0 -4 4 1
8 6 4 19 23 29 42 26 46 67 84 135 128 31 19 58 39 59 44 2 4 8 8 13 8 4 0 82
48 171 107 173 114 173 115 237 152 23 14 41 29 41 33 0 5 5 6 10 3 6 -3 13 1
16 9 3 9 10 16 15 16 5 0 64 36 131 80 67 44 125 80 130 80 4 0 8 5 8 10 0 6
5 10 10 10 6 0 16 5 23 10 7 6 68 47 137 92 200 129 265 172 268 181 2 4 8 7
13 7 12 0 183 112 187 123 2 4 10 7 17 7 8 0 20 6 27 13 7 7 45 32 83 57 39
25 72 48 73 52 2 5 8 8 13 8 11 0 213 132 217 143 2 4 7 7 12 7 8 0 135 80
157 99 7 6 15 11 18 11 4 0 21 11 39 25 18 14 36 25 40 25 4 0 12 5 19 11 13
12 209 140 361 237 54 35 103 68 110 73 6 5 52 35 101 66 50 32 92 61 93 65 2
5 8 8 13 8 5 0 63 36 129 80 66 44 122 80 125 80 3 0 11 5 18 11 7 5 71 49
142 96 134 87 225 139 225 126 0 -4 5 -2 12 5 7 7 43 10 102 9 72 -3 100 -8
136 -27z m427 -1020 c89 -27 151 -94 288 -307 50 -78 64 -105 72 -133 40 -148
5 -281 -98 -373 -26 -23 -89 -69 -141 -102 -51 -32 -131 -84 -177 -115 -46
-30 -90 -59 -99 -65 -30 -19 -147 -95 -162 -105 -8 -6 -96 -63 -195 -127 -99
-64 -181 -120 -183 -125 -2 -4 -8 -8 -13 -8 -5 0 -37 -19 -73 -42 -92 -61
-245 -161 -265 -173 -25 -15 -460 -301 -511 -335 -8 -5 -35 -23 -60 -39 -25
-16 -114 -74 -199 -130 -84 -55 -155 -101 -157 -101 -1 0 -53 -34 -114 -75
-61 -41 -113 -75 -114 -75 -2 0 -30 -17 -62 -39 -314 -207 -536 -351 -544
-351 -6 0 -10 -4 -10 -8 0 -14 -146 -93 -197 -106 -85 -21 -172 -9 -253 36
-66 37 -103 76 -166 177 -26 42 -59 92 -73 111 -108 147 -114 308 -16 448 28
40 174 143 500 353 33 22 65 43 70 47 6 5 15 11 20 13 6 2 81 51 168 108 87
57 201 132 255 167 53 34 102 68 109 73 7 6 14 11 16 11 6 0 198 125 214 139
7 6 15 11 18 11 3 0 11 5 18 10 7 6 59 40 117 78 58 37 107 70 108 74 2 5 8 8
13 8 5 0 45 25 90 55 45 30 83 55 85 55 7 0 129 85 132 93 2 4 10 7 18 7 8 0
23 9 34 20 11 11 23 21 28 22 4 1 52 31 107 67 55 36 104 68 110 71 5 3 52 33
103 68 51 34 98 62 103 62 5 0 9 4 9 8 0 5 10 14 23 21 27 15 46 26 122 76
247 160 362 236 372 245 7 5 24 15 38 22 14 6 25 15 25 20 0 4 5 8 10 8 6 0
33 16 60 35 27 19 54 35 59 35 5 0 11 4 13 8 5 13 75 53 125 72 54 20 163 20
230 0z"/>
<path d="M0 6115 l0 -6100 6083 0 6082 0 3 6098 c1 3353 -1 6098 -5 6098 -5 1
-2743 2 -6085 3 l-6078 1 0 -6100z m8952 4238 c3 -14 2 -1374 -1 -1393 -1 -3
-931 -5 -2068 -5 l-2068 0 0 -1048 c0 -576 2 -1047 5 -1048 3 0 921 -2 2040
-2 l2035 -2 0 -690 0 -690 -2040 0 -2040 0 -1 -1207 c0 -1205 0 -1207 21
-1210 11 -2 941 -3 2068 -2 1436 0 2047 -3 2048 -10 4 -42 3 -1476 -1 -1477
-24 -4 -5771 -3 -5790 2 l-25 5 0 4397 0 4397 2906 0 c2760 0 2907 -1 2911
-17z"/>
<path d="M12893 12208 c-3 -6 -7 -11970 -3 -12173 l0 -20 6090 0 6090 0 -2
6100 -3 6100 -1219 0 c-798 0 -1223 -3 -1231 -10 -7 -5 -23 -41 -35 -80 -29
-90 -130 -285 -206 -399 -32 -49 -63 -97 -69 -105 -5 -9 -12 -18 -15 -21 -3
-3 -32 -39 -65 -80 -33 -41 -93 -109 -135 -152 -41 -43 -74 -78 -72 -78 3 0
-141 -127 -199 -176 -51 -43 -305 -224 -314 -224 -8 0 -110 -65 -117 -75 -4
-5 -8 -6 -8 -1 0 5 -8 3 -17 -5 -26 -21 -55 -36 -188 -101 -66 -32 -132 -66
-147 -74 -16 -8 -28 -12 -28 -7 0 4 -4 3 -8 -3 -4 -5 -28 -18 -54 -28 -27 -10
-48 -21 -48 -24 0 -4 49 -22 108 -41 59 -19 134 -45 167 -59 33 -13 65 -25 70
-26 6 -1 32 -12 59 -24 27 -12 52 -22 55 -22 4 0 25 -9 47 -19 71 -34 179 -85
184 -86 15 -3 226 -116 313 -167 26 -15 52 -28 57 -28 6 0 10 -4 10 -10 0 -5
7 -10 15 -10 8 0 15 -5 15 -10 0 -6 3 -9 8 -8 4 1 27 -11 52 -26 65 -41 243
-159 255 -168 6 -5 57 -43 115 -85 58 -42 107 -79 110 -82 3 -4 23 -20 45 -37
22 -16 53 -41 70 -56 16 -14 41 -36 55 -48 85 -72 143 -127 233 -216 134 -133
277 -284 277 -293 0 -4 14 -20 30 -36 17 -16 30 -34 30 -41 0 -7 -48 -62 -107
-122 -60 -60 -223 -227 -363 -372 -140 -144 -315 -324 -387 -399 -73 -74 -133
-139 -133 -143 0 -5 -7 -8 -15 -8 -8 0 -15 -3 -15 -7 0 -5 -49 -59 -109 -121
l-108 -112 -74 97 c-41 54 -79 103 -84 109 -6 6 -27 30 -46 54 -52 63 -245
258 -324 327 -81 70 -90 77 -170 137 -33 25 -64 49 -70 53 -29 23 -196 132
-235 154 -25 13 -47 26 -50 29 -23 23 -279 148 -410 200 -50 20 -277 99 -283
98 -1 0 -22 5 -47 12 -48 13 -71 18 -110 25 -14 3 -54 11 -90 19 -36 8 -85 17
-110 20 -25 3 -54 8 -66 10 -134 28 -666 29 -835 1 -13 -2 -46 -6 -74 -10 -27
-3 -68 -10 -90 -15 -22 -5 -51 -11 -65 -13 -14 -3 -56 -13 -95 -22 -38 -9 -77
-18 -85 -20 -37 -8 -223 -70 -305 -102 -174 -67 -592 -285 -603 -314 -2 -5 -9
-9 -15 -9 -7 0 -23 -9 -37 -20 -14 -10 -74 -56 -135 -101 -60 -46 -115 -87
-121 -93 -6 -6 -41 -38 -79 -71 -61 -54 -160 -152 -247 -245 -54 -58 -180
-219 -239 -305 -30 -44 -57 -82 -60 -85 -12 -10 -155 -266 -193 -345 -20 -44
-42 -88 -47 -98 -41 -77 -161 -429 -174 -512 -2 -11 -9 -42 -15 -70 -14 -62
-18 -81 -24 -125 -3 -19 -7 -51 -10 -70 -28 -173 -39 -498 -23 -670 8 -85 18
-169 23 -200 26 -153 48 -265 54 -265 1 0 3 -9 5 -20 2 -11 5 -27 8 -35 70
-263 190 -545 334 -783 68 -112 165 -255 192 -284 12 -12 21 -25 21 -28 0 -35
436 -485 470 -485 5 0 10 -4 10 -9 0 -5 35 -35 77 -67 43 -33 87 -67 97 -76
11 -10 23 -18 27 -18 4 0 21 -12 38 -26 17 -14 31 -22 31 -17 0 4 4 3 8 -3 11
-17 122 -87 247 -155 138 -76 401 -195 455 -205 13 -3 30 -10 37 -16 7 -6 13
-8 13 -5 0 3 16 -1 35 -9 63 -26 306 -87 395 -99 14 -2 26 -4 28 -6 4 -3 16
-5 82 -13 36 -5 72 -10 82 -11 97 -18 507 -25 648 -11 41 4 93 9 115 10 22 2
56 6 75 10 19 3 51 8 70 11 19 2 49 7 65 10 98 19 115 23 201 45 43 12 89 23
102 26 12 2 44 13 70 23 26 10 51 19 55 19 25 0 382 155 397 172 3 3 21 14 40
23 19 10 67 38 105 63 39 25 78 47 88 51 9 3 17 8 17 12 0 4 22 20 50 36 27
17 50 33 50 38 0 4 7 7 15 7 7 0 18 6 22 13 4 8 15 18 24 23 94 53 387 323
534 494 81 93 88 102 170 212 l80 108 160 -164 c88 -90 268 -275 400 -411 132
-136 308 -316 390 -401 322 -329 308 -313 293 -332 -90 -117 -328 -369 -474
-502 -141 -129 -165 -150 -218 -190 -31 -23 -56 -46 -56 -51 0 -4 -8 -10 -17
-13 -10 -4 -34 -20 -53 -36 -50 -43 -44 -38 -178 -133 -67 -48 -126 -87 -131
-87 -5 0 -11 -3 -13 -8 -3 -7 -165 -112 -173 -112 -3 0 -29 -16 -60 -35 -30
-20 -63 -38 -73 -42 -9 -3 -24 -12 -32 -18 -16 -13 -280 -147 -365 -185 -123
-56 -141 -63 -150 -66 -5 -2 -53 -19 -105 -39 -106 -40 -117 -44 -128 -46 -4
0 -15 -5 -25 -11 -10 -5 -26 -11 -35 -13 -9 -2 -51 -15 -92 -28 -110 -37 -406
-110 -490 -122 -8 -1 -26 -5 -40 -8 -14 -4 -41 -9 -60 -12 -19 -2 -46 -7 -60
-10 -45 -8 -127 -19 -228 -30 -35 -3 -73 -8 -84 -10 -129 -25 -824 -25 -1043
0 -22 3 -60 7 -85 10 -43 5 -80 9 -165 20 -22 3 -51 7 -65 10 -14 3 -41 8 -60
11 -79 12 -282 56 -390 84 -63 17 -126 33 -140 35 -14 3 -34 9 -45 14 -15 7
-141 47 -175 56 -3 1 -12 4 -20 8 -8 3 -49 17 -90 32 -41 15 -91 34 -110 42
-19 8 -44 19 -55 23 -24 9 -80 33 -132 56 -94 41 -351 168 -375 186 -16 11
-28 17 -28 14 0 -2 -52 27 -116 65 -63 38 -119 69 -124 69 -4 0 -10 3 -12 8
-1 4 -34 27 -73 52 -38 25 -71 48 -73 52 -2 5 -8 8 -13 8 -9 0 -83 50 -144 97
-16 13 -34 27 -40 31 -46 34 -186 145 -210 166 -16 15 -43 37 -58 49 -70 55
-310 290 -410 400 -39 44 -77 85 -82 91 -6 6 -40 47 -75 91 -36 44 -67 82 -70
85 -3 3 -18 23 -35 45 -16 22 -34 45 -40 52 -29 35 -35 43 -35 48 0 3 -15 26
-32 49 -18 24 -40 54 -48 66 -8 12 -27 40 -42 61 -16 21 -28 41 -28 44 0 3
-15 27 -33 53 -18 26 -38 58 -45 72 -6 14 -16 32 -22 40 -32 48 -104 183 -164
305 -37 77 -73 149 -78 159 -18 33 -98 229 -114 276 -8 25 -19 54 -24 65 -40
93 -133 419 -165 576 -8 42 -17 83 -19 90 -3 8 -7 32 -10 54 -3 22 -7 49 -10
60 -5 26 -14 89 -21 145 -3 25 -8 56 -10 70 -5 29 -13 112 -22 225 -9 109 -9
637 1 760 7 101 9 120 22 210 4 27 8 61 10 75 10 83 18 135 28 186 2 12 7 37
10 55 3 19 17 84 31 144 32 138 30 129 49 200 9 33 19 68 21 78 2 9 6 21 9 25
3 5 7 19 10 33 11 52 130 380 154 425 6 10 17 35 25 54 95 223 301 603 393
727 13 17 24 36 24 41 0 6 3 12 8 14 4 2 20 23 37 48 16 25 32 47 35 50 3 3
19 25 35 50 17 25 35 50 41 55 6 6 24 28 40 50 23 32 126 159 190 235 7 8 95
99 196 201 194 198 289 283 463 418 39 30 72 58 73 63 2 4 10 8 17 8 7 0 15 4
17 8 2 4 20 18 41 31 20 12 37 27 37 32 0 5 4 9 9 9 5 0 52 29 105 65 53 36
98 65 100 65 3 0 24 13 48 29 24 16 66 41 93 57 28 15 73 40 100 56 55 31 335
173 348 176 4 1 33 13 65 28 96 44 134 58 145 56 4 -1 7 3 7 8 0 6 8 10 18 10
10 0 22 3 26 8 4 4 11 7 14 8 4 0 14 3 22 7 118 46 379 131 470 153 8 2 42 10
75 19 33 8 71 18 85 21 14 3 41 9 60 14 19 5 55 12 79 15 23 3 46 7 50 10 4 2
23 7 42 10 19 3 41 8 49 10 8 2 35 7 60 10 48 6 109 14 150 20 14 2 48 6 75 9
88 10 169 18 205 22 19 2 154 6 300 9 350 7 371 9 490 35 25 6 56 13 70 16 27
5 101 20 138 28 12 3 26 7 30 10 5 3 24 8 42 11 18 3 63 14 99 24 36 11 72 20
80 22 7 2 84 28 170 57 86 29 163 54 171 56 62 17 363 157 485 226 96 54 181
106 193 117 7 7 17 13 22 13 5 0 15 6 22 13 7 7 42 34 78 59 36 26 80 59 97
75 18 15 45 39 60 52 85 72 187 175 268 272 65 78 195 275 195 296 0 6 7 16
15 23 9 7 14 20 13 29 -3 15 -403 16 -4572 16 -2512 0 -4570 -3 -4573 -7z"/>
</g>
</svg>
